<?xml version="1.0" standalone="no"?>
<!DOCTYPE svg PUBLIC "-//W3C//DTD SVG 20010904//EN"
 "http://www.w3.org/TR/2001/REC-SVG-20010904/DTD/svg10.dtd">
<svg version="1.0" xmlns="http://www.w3.org/2000/svg"
 width="320.000000pt" height="142.000000pt" viewBox="0 0 320.000000 142.000000"
 preserveAspectRatio="xMidYMid meet">

<g transform="translate(0.000000,142.000000) scale(0.100000,-0.100000)"
fill="#000000" stroke="none">
<path d="M50 1340 c0 -20 7 -20 1555 -20 1548 0 1555 0 1555 20 0 20 -7 20
-1555 20 -1548 0 -1555 0 -1555 -20z"/>
<path d="M910 1195 c-6 -16 -31 -77 -55 -135 -24 -58 -62 -150 -84 -205 -21
-55 -85 -212 -140 -348 -56 -137 -101 -250 -101 -253 0 -2 13 -4 29 -4 31 0
27 -7 113 208 l41 102 205 -2 205 -3 56 -140 c31 -77 60 -146 64 -153 5 -6 22
-12 39 -12 25 0 29 3 23 18 -4 9 -22 55 -40 102 -33 85 -195 489 -220 545 -7
17 -38 93 -68 170 -54 136 -56 139 -67 110z m70 -272 c29 -76 66 -170 81 -210
16 -39 29 -76 29 -82 0 -7 -58 -11 -176 -11 -137 0 -175 3 -171 13 3 6 17 44
32 82 15 39 44 111 65 160 20 50 45 111 55 138 10 26 21 47 25 47 4 0 31 -62
60 -137z"/>
<path d="M1530 722 l0 -472 30 0 30 0 2 375 3 375 185 -260 c102 -142 187
-259 190 -259 3 -1 48 60 100 134 52 74 136 192 185 262 l90 127 5 -374 5
-375 28 -3 27 -3 0 471 0 472 -88 -123 c-48 -68 -127 -180 -175 -249 -136
-193 -166 -235 -176 -238 -5 -2 -28 25 -52 60 -63 94 -371 532 -381 543 -4 5
-8 -203 -8 -463z"/>
<path d="M60 75 l0 -25 1550 0 1550 0 0 25 0 25 -1550 0 -1550 0 0 -25z"/>
</g>
</svg>
